<?xml version="1.0" encoding="UTF-8"?>
<svg width="18px" height="18px" viewBox="0 0 18 18" version="1.1" xmlns="http://www.w3.org/2000/svg" xmlns:xlink="http://www.w3.org/1999/xlink">
    <!-- Generator: sketchtool 49 (51002) - http://www.bohemiancoding.com/sketch -->
    <title>EE1367E9-2CE1-4F5E-A01D-8CF9C80105CE</title>
    <desc>Created with sketchtool.</desc>
    <defs></defs>
    <g id="Groups" stroke="none" stroke-width="1" fill="none" fill-rule="evenodd">
        <g id="4G_Thread_Detail_View" transform="translate(-159.000000, -355.000000)" fill="#616F8A">
            <g id="Profile-Module_Left" transform="translate(141.000000, 101.000000)">
                <g id="Profile-Box">
                    <g id="About_Box" transform="translate(12.000000, 17.000000)">
                        <g id="Icon/Industry_white" transform="translate(2.000000, 233.000000)">
                            <path d="M14.1275253,20.7681818 L20.7681818,20.7681818 L20.7681818,16.3411616 L14.1275253,16.3411616 L14.1275253,20.7681818 Z M14.1275253,15.7878788 L20.7681818,15.7878788 L20.7681818,13.5742424 L14.1275253,13.5742424 L14.1275253,15.7878788 Z M14.1275253,13.0209596 L20.7681818,13.0209596 L20.7681818,10.8073232 L14.1275253,10.8073232 L14.1275253,13.0209596 Z M14.1275253,10.2540404 L20.7681818,10.2540404 L20.7681818,8.04040404 L14.1275253,8.04040404 L14.1275253,10.2540404 Z M13.0209596,5.27348485 L13.0209596,6.93358586 C13.4272727,6.93358586 13.7818182,7.15833333 13.9719697,7.48686869 L20.7681818,7.48686869 L20.7681818,5.27348485 L13.0209596,5.27348485 Z M10.8073232,15.7878788 L13.0209596,15.7878788 L13.0209596,13.5742424 L10.8073232,13.5742424 L10.8073232,15.7878788 Z M10.8073232,13.0209596 L13.0209596,13.0209596 L13.0209596,10.8073232 L10.8073232,10.8073232 L10.8073232,13.0209596 Z M10.8073232,10.2537879 L13.0209596,10.2537879 L13.0209596,8.04015152 L10.8073232,8.04015152 L10.8073232,10.2537879 Z M8.04040404,15.7878788 L10.2540404,15.7878788 L10.2540404,13.5742424 L8.04040404,13.5742424 L8.04040404,15.7878788 Z M8.04040404,13.0207071 L10.2540404,13.0207071 L10.2540404,10.8070707 L8.04040404,10.8070707 L8.04040404,13.0207071 Z M8.04040404,10.2537879 L10.2540404,10.2537879 L10.2540404,8.04015152 L8.04040404,8.04015152 L8.04040404,10.2537879 Z M5.27348485,20.7681818 L13.0209596,20.7681818 L13.0209596,16.3411616 L5.27348485,16.3411616 L5.27348485,20.7681818 Z M5.27348485,15.7878788 L7.48712121,15.7878788 L7.48712121,13.5742424 L5.27348485,13.5742424 L5.27348485,15.7878788 Z M5.27323232,13.0209596 L7.48686869,13.0209596 L7.48686869,10.8073232 L5.27323232,10.8073232 L5.27323232,13.0209596 Z M5.27348485,10.2537879 L7.48712121,10.2537879 L7.48712121,8.04015152 L5.27348485,8.04015152 L5.27348485,10.2537879 Z M21.875,5.27348485 L21.875,21.875 L4.16666667,21.875 L4.16666667,8.04040404 C4.16666667,7.42651515 4.65959596,6.93358586 5.27348485,6.93358586 L6.38030303,6.93358586 L6.38030303,4.71994949 C6.38030303,4.41742424 6.63106061,4.16666667 6.93358586,4.16666667 C7.23611111,4.16666667 7.48686869,4.41742424 7.48686869,4.71994949 L7.48686869,6.93358586 L8.59368687,6.93358586 L8.59368687,4.71994949 C8.59368687,4.41742424 8.84444444,4.16666667 9.14722222,4.16666667 C9.44974747,4.16666667 9.70050505,4.41742424 9.70050505,4.71994949 L9.70050505,6.93358586 L11.9141414,6.93358586 L11.9141414,5.27348485 C11.9141414,4.65959596 12.4068182,4.16666667 13.0209596,4.16666667 L20.7681818,4.16666667 C21.3820707,4.16666667 21.875,4.65959596 21.875,5.27348485 L21.875,5.27348485 Z" id="Page-1"></path>
                        </g>
                    </g>
                </g>
            </g>
        </g>
    </g>
</svg>