<?xml version="1.0" encoding="UTF-8"?>
<svg width="24px" height="24px" viewBox="0 0 24 24" version="1.1" xmlns="http://www.w3.org/2000/svg" xmlns:xlink="http://www.w3.org/1999/xlink">
    <!-- Generator: Sketch 48.2 (47327) - http://www.bohemiancoding.com/sketch -->
    <title>Icon/Title_white</title>
    <desc>Created with Sketch.</desc>
    <defs></defs>
    <g id="Symbols" stroke="none" stroke-width="1" fill="none" fill-rule="evenodd">
        <g id="Icon/Title_white" fill="#616F8A">
            <path d="M20.2812634,11.703051 L3.21873655,11.703051 L3.21873655,17.1873655 C3.21873655,17.8634372 3.76161655,18.4061021 4.4374731,18.4061021 L19.0625269,18.4061021 C19.729131,18.4061021 20.2812634,17.8634372 20.2812634,17.1873655 L20.2812634,11.703051 Z M3.21873655,11.0936828 L20.2812634,11.0936828 L20.2812634,8.65620966 L3.21873655,8.65620966 L3.21873655,11.0936828 Z M20.2812634,7.4374731 C20.2812634,6.76140138 19.729131,6.21873655 19.0625269,6.21873655 L4.4374731,6.21873655 C3.76161655,6.21873655 3.21873655,6.76140138 3.21873655,7.4374731 L3.21873655,8.04684138 L20.2812634,8.04684138 L20.2812634,7.4374731 Z M21.5,7.4374731 L21.5,17.1873655 C21.5,18.5300414 20.4049876,19.6248386 19.0625269,19.6248386 L4.4374731,19.6248386 C3.09501241,19.6248386 2,18.5300414 2,17.1873655 L2,7.4374731 C2,6.09501241 3.09501241,5 4.4374731,5 L19.0625269,5 C20.4049876,5 21.5,6.09501241 21.5,7.4374731 L21.5,7.4374731 Z" id="Fill-1"></path>
        </g>
    </g>
</svg>